<?xml version="1.0" encoding="us-ascii" standalone="no"?><svg xmlns="http://www.w3.org/2000/svg" xmlns:xlink="http://www.w3.org/1999/xlink" contentStyleType="text/css" height="659px" preserveAspectRatio="none" style="width:961px;height:659px;background:#FFFFFF;" version="1.1" viewBox="0 0 961 659" width="961px" zoomAndPan="magnify"><defs/><g><ellipse cx="621" cy="16" fill="#222222" rx="10" ry="10" style="stroke:#222222;stroke-width:1.0;"/><g id="STARTUP"><rect fill="#F1F1F1" height="50" rx="12.5" ry="12.5" style="stroke:#181818;stroke-width:0.5;" width="80" x="581" y="87"/><line style="stroke:#181818;stroke-width:0.5;" x1="581" x2="661" y1="116.0679" y2="116.0679"/><text fill="#000000" font-family="sans-serif" font-size="14" lengthAdjust="spacing" textLength="60" x="591" y="106.9659">STARTUP</text></g><g id="WAITING_FOR_CALIBRATION"><rect fill="#F1F1F1" height="50" rx="12.5" ry="12.5" style="stroke:#181818;stroke-width:0.5;" width="212" x="286" y="216"/><line style="stroke:#181818;stroke-width:0.5;" x1="286" x2="498" y1="245.0679" y2="245.0679"/><text fill="#000000" font-family="sans-serif" font-size="14" lengthAdjust="spacing" textLength="192" x="296" y="235.9659">WAITING_FOR_CALIBRATION</text></g><g id="READY"><rect fill="#F1F1F1" height="50" rx="12.5" ry="12.5" style="stroke:#181818;stroke-width:0.5;" width="64" x="360" y="345"/><line style="stroke:#181818;stroke-width:0.5;" x1="360" x2="424" y1="374.0679" y2="374.0679"/><text fill="#000000" font-family="sans-serif" font-size="14" lengthAdjust="spacing" textLength="44" x="370" y="364.9659">READY</text></g><g id="RUNNING_TEST"><rect fill="#F1F1F1" height="50" rx="12.5" ry="12.5" style="stroke:#181818;stroke-width:0.5;" width="125" x="391.5" y="474"/><line style="stroke:#181818;stroke-width:0.5;" x1="391.5" x2="516.5" y1="503.0679" y2="503.0679"/><text fill="#000000" font-family="sans-serif" font-size="14" lengthAdjust="spacing" textLength="105" x="401.5" y="493.9659">RUNNING_TEST</text></g><g id="ERROR_STATE"><rect fill="#F1F1F1" height="50" rx="12.5" ry="12.5" style="stroke:#181818;stroke-width:0.5;" width="113" x="540.5" y="603"/><line style="stroke:#181818;stroke-width:0.5;" x1="540.5" x2="653.5" y1="632.0679" y2="632.0679"/><text fill="#000000" font-family="sans-serif" font-size="14" lengthAdjust="spacing" textLength="93" x="550.5" y="622.9659">ERROR_STATE</text></g><g id="elem_GMN9"><path d="M701,89.5 L701,108 L661.22,112 L701,116 L701,134.912 A0,0 0 0 0 701,134.912 L937,134.912 A0,0 0 0 0 937,134.912 L937,99.5 L927,89.5 L701,89.5 A0,0 0 0 0 701,89.5 " fill="#FEFFDD" style="stroke:#181818;stroke-width:0.5;"/><path d="M927,89.5 L927,99.5 L937,99.5 L927,89.5 " fill="#FEFFDD" style="stroke:#181818;stroke-width:0.5;"/><text fill="#000000" font-family="sans-serif" font-size="13" lengthAdjust="spacing" textLength="98" x="707" y="108.397">Initial boot state</text><text fill="#000000" font-family="sans-serif" font-size="13" lengthAdjust="spacing" textLength="215" x="707" y="126.103">Setup hardware / initialize controller</text></g><g id="elem_GMN12"><path d="M6,218.5 L6,263.912 A0,0 0 0 0 6,263.912 L246,263.912 A0,0 0 0 0 246,263.912 L246,245 L285.93,241 L246,237 L246,228.5 L236,218.5 L6,218.5 A0,0 0 0 0 6,218.5 " fill="#FEFFDD" style="stroke:#181818;stroke-width:0.5;"/><path d="M236,218.5 L236,228.5 L246,228.5 L236,218.5 " fill="#FEFFDD" style="stroke:#181818;stroke-width:0.5;"/><text fill="#000000" font-family="sans-serif" font-size="13" lengthAdjust="spacing" textLength="219" x="12" y="237.397">Waiting for user to set zero positions</text><text fill="#000000" font-family="sans-serif" font-size="13" lengthAdjust="spacing" textLength="184" x="12" y="255.103">Calibration commands allowed</text></g><g id="elem_GMN15"><path d="M482,347.5 L482,366 L424.04,370 L482,374 L482,392.912 A0,0 0 0 0 482,392.912 L688,392.912 A0,0 0 0 0 688,392.912 L688,357.5 L678,347.5 L482,347.5 A0,0 0 0 0 482,347.5 " fill="#FEFFDD" style="stroke:#181818;stroke-width:0.5;"/><path d="M678,347.5 L678,357.5 L688,357.5 L678,347.5 " fill="#FEFFDD" style="stroke:#181818;stroke-width:0.5;"/><text fill="#000000" font-family="sans-serif" font-size="13" lengthAdjust="spacing" textLength="107" x="488" y="366.397">Normal operation</text><text fill="#000000" font-family="sans-serif" font-size="13" lengthAdjust="spacing" textLength="185" x="488" y="384.103">Accepts movement commands</text></g><g id="elem_GMN18"><path d="M129,485 L129,512.706 A0,0 0 0 0 129,512.706 L351,512.706 A0,0 0 0 0 351,512.706 L351,503 L391.34,499 L351,495 L351,495 L341,485 L129,485 A0,0 0 0 0 129,485 " fill="#FEFFDD" style="stroke:#181818;stroke-width:0.5;"/><path d="M341,485 L341,495 L351,495 L341,485 " fill="#FEFFDD" style="stroke:#181818;stroke-width:0.5;"/><text fill="#000000" font-family="sans-serif" font-size="13" lengthAdjust="spacing" textLength="201" x="135" y="503.897">Automated motion test sequence</text></g><g id="elem_GMN21"><path d="M693.5,605.5 L693.5,624 L653.64,628 L693.5,632 L693.5,650.912 A0,0 0 0 0 693.5,650.912 L824.5,650.912 A0,0 0 0 0 824.5,650.912 L824.5,615.5 L814.5,605.5 L693.5,605.5 A0,0 0 0 0 693.5,605.5 " fill="#FEFFDD" style="stroke:#181818;stroke-width:0.5;"/><path d="M814.5,605.5 L814.5,615.5 L824.5,615.5 L814.5,605.5 " fill="#FEFFDD" style="stroke:#181818;stroke-width:0.5;"/><text fill="#000000" font-family="sans-serif" font-size="13" lengthAdjust="spacing" textLength="63" x="699.5" y="624.397">Fault state</text><text fill="#000000" font-family="sans-serif" font-size="13" lengthAdjust="spacing" textLength="110" x="699.5" y="642.103">Safe behavior only</text></g><!--link *start* to STARTUP--><g id="link_*start*_STARTUP"><path d="M621,26.01 C621,39.89 621,60.97 621,80.84 " fill="none" id="*start*-to-STARTUP" style="stroke:#181818;stroke-width:1.0;"/><polygon fill="#181818" points="621,86.84,625,77.84,621,81.84,617,77.84,621,86.84" style="stroke:#181818;stroke-width:1.0;"/></g><!--link STARTUP to WAITING_FOR_CALIBRATION--><g id="link_STARTUP_WAITING_FOR_CALIBRATION"><path d="M580.85,135.27 C540.19,157.82 482.7268,189.6795 440.8668,212.8995 " fill="none" id="STARTUP-to-WAITING_FOR_CALIBRATION" style="stroke:#181818;stroke-width:1.0;"/><polygon fill="#181818" points="435.62,215.81,445.4306,214.9422,439.9924,213.3846,441.55,207.9464,435.62,215.81" style="stroke:#181818;stroke-width:1.0;"/><text fill="#000000" font-family="sans-serif" font-size="13" lengthAdjust="spacing" textLength="78" x="522" y="181.897">init complete</text></g><!--link STARTUP to ERROR_STATE--><g id="link_STARTUP_ERROR_STATE"><path d="M661.15,130.72 C726.83,160.31 850,218.66 850,240 C850,240 850,240 850,500 C850,521.81 733.9309,572.177 659.3409,602.397 " fill="none" id="STARTUP-to-ERROR_STATE" style="stroke:#181818;stroke-width:1.0;"/><polygon fill="#181818" points="653.78,604.65,663.6234,604.9778,658.4141,602.7725,660.6194,597.5632,653.78,604.65" style="stroke:#181818;stroke-width:1.0;"/><text fill="#000000" font-family="sans-serif" font-size="13" lengthAdjust="spacing" textLength="102" x="851" y="375.397">initialization fault</text></g><!--link WAITING_FOR_CALIBRATION to READY--><g id="link_WAITING_FOR_CALIBRATION_READY"><path d="M397.97,266.03 C400,275.33 402,286.1 403,296 C404.65,312.32 403.2099,324.7147 400.0399,338.8847 " fill="none" id="WAITING_FOR_CALIBRATION-to-READY" style="stroke:#181818;stroke-width:1.0;"/><polygon fill="#181818" points="398.73,344.74,404.5984,336.8304,399.8216,339.8606,396.7913,335.0838,398.73,344.74" style="stroke:#181818;stroke-width:1.0;"/><text fill="#000000" font-family="sans-serif" font-size="13" lengthAdjust="spacing" textLength="122" x="405" y="310.897">calibration complete</text></g><!--link READY to WAITING_FOR_CALIBRATION--><g id="link_READY_WAITING_FOR_CALIBRATION"><path d="M359.66,351.66 C339,338.07 317.84,317.86 328,296 C333.39,284.4 338.0226,278.2214 347.8326,270.0814 " fill="none" id="READY-to-WAITING_FOR_CALIBRATION" style="stroke:#181818;stroke-width:1.0;"/><polygon fill="#181818" points="352.45,266.25,342.9696,268.9188,348.6022,269.4428,348.0781,275.0753,352.45,266.25" style="stroke:#181818;stroke-width:1.0;"/><text fill="#000000" font-family="sans-serif" font-size="13" lengthAdjust="spacing" textLength="63" x="329" y="310.897">recalibrate</text></g><!--link WAITING_FOR_CALIBRATION to ERROR_STATE--><g id="link_WAITING_FOR_CALIBRATION_ERROR_STATE"><path d="M285.62,264.61 C263.94,272.3 242.22,282.5 224,296 C132.8,363.56 37.51,435.85 109,524 C162.79,590.33 417.4244,615.1743 534.2044,623.2843 " fill="none" id="WAITING_FOR_CALIBRATION-to-ERROR_STATE" style="stroke:#181818;stroke-width:1.0;"/><polygon fill="#181818" points="540.19,623.7,531.4887,619.0861,535.202,623.3536,530.9345,627.0669,540.19,623.7" style="stroke:#181818;stroke-width:1.0;"/><text fill="#000000" font-family="sans-serif" font-size="13" lengthAdjust="spacing" textLength="93" x="94" y="439.897">calibration fault</text></g><!--link ERROR_STATE to WAITING_FOR_CALIBRATION--><g id="link_ERROR_STATE_WAITING_FOR_CALIBRATION"><path d="M621.3,602.73 C669.83,551.28 769.04,429.1 708,345 C660.46,279.51 576.1246,255.5967 504.1846,246.6967 " fill="none" id="ERROR_STATE-to-WAITING_FOR_CALIBRATION" style="stroke:#181818;stroke-width:1.0;"/><polygon fill="#181818" points="498.23,245.96,506.6708,251.0347,503.1922,246.5739,507.653,243.0953,498.23,245.96" style="stroke:#181818;stroke-width:1.0;"/><text fill="#000000" font-family="sans-serif" font-size="13" lengthAdjust="spacing" textLength="30" x="727" y="439.897">reset</text></g><!--link READY to READY--><g id="link_READY_READY"><path d="M424.21,358.9 C444.54,356.11 464,359.81 464,370 C464,380.19 450.4843,384.7058 430.1543,381.9158 " fill="none" id="READY-to-READY" style="stroke:#181818;stroke-width:1.0;"/><polygon fill="#181818" points="424.21,381.1,432.5826,386.2865,429.1636,381.7798,433.6703,378.3608,424.21,381.1" style="stroke:#181818;stroke-width:1.0;"/></g><!--link READY to RUNNING_TEST--><g id="link_READY_RUNNING_TEST"><path d="M418.57,395.26 C426.59,403.91 434.68,414.2 440,425 C447.53,440.28 450.369,453.2454 451.979,467.9954 " fill="none" id="READY-to-RUNNING_TEST" style="stroke:#181818;stroke-width:1.0;"/><polygon fill="#181818" points="452.63,473.96,455.6298,464.5791,452.0875,468.9895,447.677,465.4472,452.63,473.96" style="stroke:#181818;stroke-width:1.0;"/><text fill="#000000" font-family="sans-serif" font-size="13" lengthAdjust="spacing" textLength="54" x="449" y="439.897">start test</text></g><!--link RUNNING_TEST to READY--><g id="link_RUNNING_TEST_READY"><path d="M391.44,480.63 C373.67,472.5 356.36,460.76 346,444 C335.92,427.69 343.2,413.7052 357.22,399.5352 " fill="none" id="RUNNING_TEST-to-READY" style="stroke:#181818;stroke-width:1.0;"/><polygon fill="#181818" points="361.44,395.27,352.2666,398.8544,357.9233,398.8243,357.9534,404.4811,361.44,395.27" style="stroke:#181818;stroke-width:1.0;"/><text fill="#000000" font-family="sans-serif" font-size="13" lengthAdjust="spacing" textLength="82" x="347" y="439.897">test complete</text></g><!--link READY to ERROR_STATE--><g id="link_READY_ERROR_STATE"><path d="M424.18,382.25 C455.65,393.77 500.74,411.81 514,425 C564.68,475.39 584.6581,555.1865 592.2281,596.8765 " fill="none" id="READY-to-ERROR_STATE" style="stroke:#181818;stroke-width:1.0;"/><polygon fill="#181818" points="593.3,602.78,595.6277,593.2102,592.4067,597.8604,587.7564,594.6394,593.3,602.78" style="stroke:#181818;stroke-width:1.0;"/><text fill="#000000" font-family="sans-serif" font-size="13" lengthAdjust="spacing" textLength="83" x="573" y="504.397">fault detected</text></g><!--link RUNNING_TEST to ERROR_STATE--><g id="link_RUNNING_TEST_ERROR_STATE"><path d="M469.6,524.1 C480.14,539.24 495.01,558.56 511,573 C523.3,584.1 533.0439,591.1955 546.9339,599.7055 " fill="none" id="RUNNING_TEST-to-ERROR_STATE" style="stroke:#181818;stroke-width:1.0;"/><polygon fill="#181818" points="552.05,602.84,546.4655,594.7275,547.7866,600.2279,542.2861,601.549,552.05,602.84" style="stroke:#181818;stroke-width:1.0;"/><text fill="#000000" font-family="sans-serif" font-size="13" lengthAdjust="spacing" textLength="53" x="512" y="568.897">test fault</text></g><!--link RUNNING_TEST to WAITING_FOR_CALIBRATION--><g id="link_RUNNING_TEST_WAITING_FOR_CALIBRATION"><path d="M391.42,480.32 C326.04,460.43 230.1,426.75 209,395 C171.82,339.03 249.7119,294.7853 315.8219,268.2453 " fill="none" id="RUNNING_TEST-to-WAITING_FOR_CALIBRATION" style="stroke:#181818;stroke-width:1.0;"/><polygon fill="#181818" points="321.39,266.01,311.5477,265.6509,316.7499,267.8728,314.5281,273.075,321.39,266.01" style="stroke:#181818;stroke-width:1.0;"/><text fill="#000000" font-family="sans-serif" font-size="13" lengthAdjust="spacing" textLength="111" x="219" y="366.397">cancel / recalibrate</text><text fill="#000000" font-family="sans-serif" font-size="13" lengthAdjust="spacing" textLength="129" x="210" y="384.103">move / tracking input</text></g><!--SRC=[XLHDQzmm4BthLyov49f3wI67WhlT54DmYjSXbBO4hJrUYvKrhYHdQNvzHx9hv0QtDqkQzp5l9BkpCeEqieUZhCydIwDfTgJ9mgLJ7eLRpbqd6xeeSu9MQeT2U1h04np9U-gXKHPhhyWa42lDsU40xw-JJKCDXirtrq9yU_C3hgu-mA7AokhXYn3EIu_BSbezPdcL5v-VRk_Bfrrsbtyiiog_B-RJSfzz-lhd-w4eGcMrFrJprhui6SQ4rLu8GxnZrQdpGEsYaXlbbTJS27c8A750FmxGITjSf4Lu2sggKIy8DHblIMkq0aq3WNDcrjX6uYt3Zv99GdwSxkZGXlGSUdX1Ip2GKo4-9tQiSxGoB5YixwLf74YjwOBDtv9BCrCC1TcUEw419xp8wXe7xw2dP-pH-8Lmo_igmcpaoN8U3UEZ7O-E8yAV8veQDxsacT_AKI-foXRXY9ryLfm06VqhePYd4Q_3He1m4-SGUXWq1i84auZETN5UKunjS2745c_0nm0PMQ_JduJ-1LmBf_1PTM9UDD9r4ZPZEINhOyP9pNOM_DvcCKpgrtQY1MYuXvh7o5vInRJjEDcbtrTbQzPOF7NtgdBRRotvqcX-J8dnxoRSJDxpbdy_uN7mRsBaq5B1_yN0R-Wt]--></g></svg>